<?xml version="1.0" encoding="UTF-8"?>
<!DOCTYPE svg PUBLIC "-//W3C//DTD SVG 1.1//EN" "http://www.w3.org/Graphics/SVG/1.1/DTD/svg11.dtd">
<!-- Creator: CorelDRAW 2019 (64-Bit) -->
<svg xmlns="http://www.w3.org/2000/svg" xml:space="preserve" width="225.552mm" height="98.552mm" version="1.1" style="shape-rendering:geometricPrecision; text-rendering:geometricPrecision; image-rendering:optimizeQuality; fill-rule:evenodd; clip-rule:evenodd"
viewBox="0 0 22555.2 9855.2"
 xmlns:xlink="http://www.w3.org/1999/xlink">
 <defs>
  <style type="text/css">
   <![CDATA[
    .fil0 {fill:#025159}
   ]]>
  </style>
 </defs>
 <g id="Слой_x0020_1">
  <metadata id="CorelCorpID_0Corel-Layer"/>
  <g id="_2239324134976">
   <g>
    <path class="fil0" d="M9147.41 6792.51l0 661.83c-1972.13,47.57 -3868.82,-130.35 -5632.39,-501.37l3872.2 -4727.45 -3853.41 0 0 -1046.61 5489.91 0 0 827.77 -3920 4785.83 4043.69 0zm2483.31 -4566.99l-2207.38 0 0 -1046.61 5651.66 0 0 1046.61 -2207.39 0 0 4787.2c-406.82,96.16 -819.29,177.71 -1236.89,242.54l0 -5029.74z"/>
    <path class="fil0" d="M271.27 6197.41c2929.93,1136.15 6456.07,1670.61 10201.17,1391.24 3281.83,-244.79 6278.91,-1623.51 8806.55,-3009.46l28.73 26.84c0,0 304.19,3.92 639.08,-177.5 -2366.81,2177.57 -5654.04,3913.76 -9397.32,4192.99 -4050.35,302.12 -7759.22,-664.91 -10278.21,-2424.11z"/>
   </g>
   <path class="fil0" d="M21070.36 3874.87c378.8,-300.29 757.41,-600.56 1136.21,-900.75 102.27,-81.02 87.76,-172.11 44.09,-230.98 -54.22,-72.91 -189.48,-86.08 -349.77,-47.47 -457.81,110.66 -1182.67,634.84 -2283.88,1492.99l-697.09 -339.61 -224.48 197.65 612.44 572.17c0,0 151.74,160.88 639.24,-187.06l533.65 -245.25 -141.87 478.93 731.46 -790.62z"/>
  </g>
 </g>
</svg>
